Gait_normal_01_analogdata.mot
version=1
nRows=43
nColumns=19
inDegrees=yes
endheader
time	1_ground_force_vx	1_ground_force_vy	1_ground_force_vz	1_ground_force_px	1_ground_force_py	1_ground_force_pz	1_ground_torque_x	1_ground_torque_y	1_ground_torque_z	2_ground_force_vx	2_ground_force_vy	2_ground_force_vz	2_ground_force_px	2_ground_force_py	2_ground_force_pz	2_ground_torque_x	2_ground_torque_y	2_ground_torque_z
0.450000	-21.886064	496.372833	-25.865133	-0.143640	0.000000	-0.348883	-0.033072	0.750066	-0.039085	0.000000	0.000000	-0.000000	-0.200000	0.000000	0.302000	0.000000	0.000000	-0.000000
0.451000	-21.440634	491.823853	-25.245849	-0.144027	0.000000	-0.347735	-0.026084	0.598327	-0.030713	0.000000	0.000000	-0.000000	-0.200000	0.000000	0.302000	0.000000	0.000000	-0.000000
0.452000	-22.866007	496.372833	-25.953603	-0.144326	0.000000	-0.347755	-0.023801	0.516662	-0.027014	0.000000	0.000000	-0.000000	-0.200000	0.000000	0.302000	0.000000	0.000000	-0.000000
0.453000	-19.837090	493.223541	-24.361156	-0.143558	0.000000	-0.347719	-0.039205	0.974769	-0.048146	0.000000	0.000000	-0.000000	-0.200000	0.000000	0.302000	0.000000	0.000000	-0.000000
0.454000	-19.748005	494.273285	-24.980441	-0.144585	0.000000	-0.347042	-0.030322	0.758938	-0.038357	0.000000	0.000000	-0.000000	-0.200000	0.000000	0.302000	0.000000	0.000000	-0.000000
0.455000	-19.837090	491.823853	-23.741872	-0.144077	0.000000	-0.347287	-0.035542	0.881191	-0.042538	0.000000	0.000000	-0.000000	-0.200000	0.000000	0.302000	0.000000	0.000000	-0.000000
0.456000	-18.946232	486.225067	-22.768710	-0.143707	0.000000	-0.347382	-0.046434	1.191644	-0.055802	0.000000	0.000000	-0.000000	-0.200000	0.000000	0.302000	0.000000	0.000000	-0.000000
0.457000	-20.371605	487.974701	-23.211057	-0.143943	0.000000	-0.344271	-0.033949	0.813192	-0.038680	0.000000	0.000000	-0.000000	-0.200000	0.000000	0.302000	0.000000	0.000000	-0.000000
0.458000	-20.015263	483.075775	-23.387994	-0.143009	0.000000	-0.349553	-0.027877	0.672813	-0.032574	0.000000	0.000000	-0.000000	-0.200000	0.000000	0.302000	0.000000	0.000000	-0.000000
0.459000	-19.748005	490.424133	-23.476464	-0.143768	0.000000	-0.346487	-0.035843	0.890122	-0.042610	0.000000	0.000000	-0.000000	-0.200000	0.000000	0.302000	0.000000	0.000000	-0.000000
0.460000	-18.589890	484.475464	-23.122586	-0.142115	0.000000	-0.346662	-0.027509	0.716910	-0.034216	0.000000	0.000000	-0.000000	-0.200000	0.000000	0.302000	0.000000	0.000000	-0.000000
0.461000	-19.569832	484.475464	-23.653401	-0.143267	0.000000	-0.347120	-0.019820	0.490659	-0.023955	0.000000	0.000000	-0.000000	-0.200000	0.000000	0.302000	0.000000	0.000000	-0.000000
0.462000	-19.569832	483.775635	-22.414832	-0.142504	0.000000	-0.345009	-0.021403	0.529088	-0.024514	0.000000	0.000000	-0.000000	-0.200000	0.000000	0.302000	0.000000	0.000000	-0.000000
0.463000	-19.302576	484.125549	-22.326364	-0.143165	0.000000	-0.345436	-0.014590	0.365934	-0.016876	0.000000	0.000000	-0.000000	-0.200000	0.000000	0.302000	0.000000	0.000000	-0.000000
0.464000	-19.748005	484.125549	-22.945649	-0.142611	0.000000	-0.345174	-0.025310	0.620490	-0.029409	0.000000	0.000000	-0.000000	-0.200000	0.000000	0.302000	0.000000	0.000000	-0.000000
0.465000	-19.213490	483.075775	-22.237895	-0.142573	0.000000	-0.345738	-0.020847	0.524143	-0.024128	0.000000	0.000000	-0.000000	-0.200000	0.000000	0.302000	0.000000	0.000000	-0.000000
0.466000	-18.946232	482.725861	-20.999326	-0.143650	0.000000	-0.343887	-0.029040	0.739906	-0.032187	0.000000	0.000000	-0.000000	-0.200000	0.000000	0.302000	0.000000	0.000000	-0.000000
0.467000	-21.707892	483.425690	-21.707080	-0.142709	0.000000	-0.343889	-0.015007	0.334201	-0.015006	0.000000	0.000000	-0.000000	-0.200000	0.000000	0.302000	0.000000	0.000000	-0.000000
0.468000	-17.075431	482.725861	-20.468510	-0.143277	0.000000	-0.343498	-0.024814	0.701492	-0.029745	0.000000	0.000000	-0.000000	-0.200000	0.000000	0.302000	0.000000	0.000000	-0.000000
0.469000	-18.233546	483.775635	-20.114633	-0.143932	0.000000	-0.342741	-0.025610	0.679485	-0.028252	0.000000	0.000000	-0.000000	-0.200000	0.000000	0.302000	0.000000	0.000000	-0.000000
0.470000	-17.877204	481.326172	-19.229941	-0.142969	0.000000	-0.343717	-0.023535	0.633648	-0.025315	0.000000	0.000000	-0.000000	-0.200000	0.000000	0.302000	0.000000	0.000000	-0.000000
0.471000	-17.699031	477.826935	-19.053002	-0.142477	0.000000	-0.343267	-0.022697	0.612756	-0.024433	0.000000	0.000000	-0.000000	-0.200000	0.000000	0.302000	0.000000	0.000000	-0.000000
0.472000	-18.857146	476.777161	-19.141471	-0.143207	0.000000	-0.340849	-0.017759	0.449019	-0.018027	0.000000	0.000000	-0.000000	-0.200000	0.000000	0.302000	0.000000	0.000000	-0.000000
0.473000	-18.678975	473.277954	-19.583817	-0.141786	0.000000	-0.345899	-0.015882	0.402420	-0.016652	0.000000	0.000000	-0.000000	-0.200000	0.000000	0.302000	0.000000	0.000000	-0.000000
0.474000	-18.233546	481.676086	-19.053002	-0.142470	0.000000	-0.342362	-0.028596	0.755430	-0.029882	0.000000	0.000000	-0.000000	-0.200000	0.000000	0.302000	0.000000	0.000000	-0.000000
0.475000	-17.342689	478.526794	-18.876063	-0.141274	0.000000	-0.343097	-0.017680	0.487832	-0.019243	0.000000	0.000000	-0.000000	-0.200000	0.000000	0.302000	0.000000	0.000000	-0.000000
0.476000	-18.233546	477.477020	-18.699126	-0.143151	0.000000	-0.343274	-0.010931	0.286256	-0.011210	0.000000	0.000000	-0.000000	-0.200000	0.000000	0.302000	0.000000	0.000000	-0.000000
0.477000	-18.411718	477.477020	-17.991372	-0.141929	0.000000	-0.341062	-0.010134	0.262819	-0.009903	0.000000	0.000000	-0.000000	-0.200000	0.000000	0.302000	0.000000	0.000000	-0.000000
0.478000	-18.144460	479.226624	-18.079841	-0.142456	0.000000	-0.341381	-0.005363	0.141639	-0.005344	0.000000	0.000000	-0.000000	-0.200000	0.000000	0.302000	0.000000	0.000000	-0.000000
0.479000	-18.322633	480.626312	-18.345248	-0.142226	0.000000	-0.340991	-0.013904	0.364716	-0.013921	0.000000	0.000000	-0.000000	-0.200000	0.000000	0.302000	0.000000	0.000000	-0.000000
0.480000	-17.342689	478.876709	-17.637494	-0.141872	0.000000	-0.341610	-0.008766	0.242039	-0.008915	0.000000	0.000000	-0.000000	-0.200000	0.000000	0.302000	0.000000	0.000000	-0.000000
0.481000	-17.520860	479.226624	-16.929740	-0.142521	0.000000	-0.339477	-0.011167	0.305427	-0.010790	0.000000	0.000000	-0.000000	-0.200000	0.000000	0.302000	0.000000	0.000000	-0.000000
0.482000	-19.837091	479.226624	-16.664333	-0.142231	0.000000	-0.340324	-0.003955	0.095551	-0.003323	0.000000	0.000000	-0.000000	-0.200000	0.000000	0.302000	0.000000	0.000000	-0.000000
0.483000	-15.917316	479.926483	-16.575863	-0.142667	0.000000	-0.340197	-0.016941	0.510782	-0.017642	0.000000	0.000000	-0.000000	-0.200000	0.000000	0.302000	0.000000	0.000000	-0.000000
0.484000	-16.897260	486.575012	-15.071887	-0.143006	0.000000	-0.339080	-0.016305	0.469526	-0.014544	0.000000	0.000000	-0.000000	-0.200000	0.000000	0.302000	0.000000	0.000000	-0.000000
0.485000	-17.788118	477.826935	-14.187195	-0.141811	0.000000	-0.339126	-0.017399	0.467371	-0.013877	0.000000	0.000000	-0.000000	-0.200000	0.000000	0.302000	0.000000	0.000000	-0.000000
0.486000	-16.362745	477.127106	-15.071887	-0.141723	0.000000	-0.339950	-0.016308	0.475523	-0.015021	0.000000	0.000000	-0.000000	-0.200000	0.000000	0.302000	0.000000	0.000000	-0.000000
0.487000	-17.877205	477.477020	-14.541072	-0.142383	0.000000	-0.337420	-0.015254	0.407407	-0.012407	0.000000	0.000000	-0.000000	-0.200000	0.000000	0.302000	0.000000	0.000000	-0.000000
0.488000	-17.788118	472.228180	-14.452602	-0.140758	0.000000	-0.342086	-0.003209	0.085191	-0.002607	0.000000	0.000000	-0.000000	-0.200000	0.000000	0.302000	0.000000	0.000000	-0.000000
0.489000	-17.431776	479.226624	-13.744848	-0.141355	0.000000	-0.338841	-0.027229	0.748578	-0.021470	0.000000	0.000000	-0.000000	-0.200000	0.000000	0.302000	0.000000	0.000000	-0.000000
0.490000	-16.006403	477.477020	-13.567910	-0.140100	0.000000	-0.338173	-0.007675	0.228945	-0.006506	0.000000	0.000000	-0.000000	-0.200000	0.000000	0.302000	0.000000	0.000000	-0.000000
0.491000	-18.500805	479.576538	-14.010257	-0.142583	0.000000	-0.337610	-0.001557	0.040360	-0.001179	0.000000	0.000000	-0.000000	-0.200000	0.000000	0.302000	0.000000	0.000000	-0.000000
0.492000	-17.966289	476.077332	-13.214033	-0.141009	0.000000	-0.337598	-0.001821	0.048246	-0.001339	0.000000	0.000000	-0.000000	-0.200000	0.000000	0.302000	0.000000	0.000000	-0.000000
